<svg xmlns="http://www.w3.org/2000/svg" width="792" height="296.75"><path fill="#5C4863" d="M160.1 217.372c18.876 0 28.236-9.984 28.236-22.152 0-29.016-47.424-17.472-47.424-36.348 0-7.8 7.02-13.728 18.72-13.728 9.984 0 18.096 4.056 22.464 9.983l4.524-5.772c-5.46-6.084-14.04-11.075-26.988-11.075-17.004 0-26.832 9.36-26.832 20.903 0 27.145 47.58 15.444 47.58 36.036 0 8.736-7.488 15.288-20.124 15.288-10.607 0-19.5-4.992-24.336-11.076l-4.836 5.929c7.488 8.424 16.848 12.012 29.016 12.012zm105.144-1.872v-53.04c0-16.849-12.168-24.18-27.456-24.18-12.48 0-21.216 4.212-29.017 12.636l4.524 5.616c6.864-7.8 14.196-11.076 23.712-11.076 11.076 0 20.124 6.084 20.124 17.315v15.288c-6.552-7.332-15.132-10.764-25.584-10.764-13.104 0-26.364 8.58-26.364 24.96 0 16.225 13.416 25.116 26.364 25.116 10.452 0 18.876-3.432 25.584-10.764v8.892h8.113v.001zm-30.889-4.524c-12.323 0-20.592-7.956-20.592-18.563 0-10.764 8.269-18.72 20.592-18.72 9.049 0 17.473 3.432 22.776 10.451v16.536c-5.303 6.864-13.727 10.296-22.776 10.296zm78.625 6.396c18.875 0 28.235-9.984 28.235-22.152 0-29.016-47.424-17.472-47.424-36.348 0-7.8 7.021-13.728 18.72-13.728 9.984 0 18.096 4.056 22.464 9.983l4.524-5.772c-5.46-6.084-14.04-11.075-26.988-11.075-17.004 0-26.832 9.36-26.832 20.903 0 27.145 47.58 15.444 47.58 36.036 0 8.736-7.488 15.288-20.124 15.288-10.608 0-19.5-4.992-24.336-11.076l-4.836 5.929c7.489 8.424 16.849 12.012 29.017 12.012zm71.604 0c18.876 0 28.236-9.984 28.236-22.152 0-29.016-47.424-17.472-47.424-36.348 0-7.8 7.02-13.728 18.72-13.728 9.983 0 18.096 4.056 22.464 9.983l4.523-5.772c-5.459-6.084-14.039-11.075-26.987-11.075-17.004 0-26.832 9.36-26.832 20.903 0 27.145 47.58 15.444 47.58 36.036 0 8.736-7.488 15.288-20.124 15.288-10.608 0-19.5-4.992-24.336-11.076l-4.837 5.929c7.489 8.424 16.849 12.012 29.017 12.012zm78.676 1.128c25.376 0 43.066-16.104 43.066-40.748 0-24.4-17.69-40.626-43.188-40.626h-32.086V218.5h32.208zm-.122-15.25h-14.762v-50.874h14.884c16.593 0 25.376 11.103 25.376 25.376 0 13.908-9.394 25.498-25.498 25.498zm94.184 16.714c24.521 0 42.456-17.567 42.456-42.09s-17.935-42.09-42.456-42.09c-24.645 0-42.578 17.567-42.578 42.09s17.934 42.09 42.578 42.09zm0-15.372c-15.128 0-24.767-11.59-24.767-26.718 0-15.25 9.639-26.718 24.767-26.718 15.006 0 24.644 11.468 24.644 26.718 0 15.128-9.638 26.718-24.644 26.718zm94.184 15.372c17.812 0 28.182-9.882 33.916-20.008l-14.884-7.198c-3.416 6.588-10.736 11.834-19.032 11.834-14.884 0-25.62-11.346-25.62-26.718s10.736-26.718 25.62-26.718c8.296 0 15.616 5.246 19.032 11.834l14.884-7.32c-5.734-10.248-16.104-19.886-33.916-19.886-24.521 0-43.432 16.958-43.432 42.09 0 25.01 18.91 42.09 43.432 42.09z"/><path fill="#DD5A6F" d="M105.515 138.305c-.387 1.16-.821 2.32-1.305 3.48s-1.04 2.175-1.668 3.045-1.33 1.521-2.102 1.957c-.773.436-1.596.508-2.466.218-1.159-.192-1.812-1.04-1.958-2.537-.145-1.5.025-2.973.509-4.423.677-2.32 1.667-5.39 2.973-9.208 1.305-3.818 2.803-8 4.495-12.542 1.689-4.543 3.479-9.256 5.365-14.138a3320.67 3320.67 0 015.437-13.992 1758.87 1758.87 0 014.785-12.108 584.496 584.496 0 003.335-8.482c.29-.58.725-1.063 1.305-1.45s1.185-.58 1.813-.58c.628 0 1.256.193 1.885.58.628.387 1.135 1.015 1.521 1.885.773 2.03.822 4.012.146 5.945-.677 1.547-1.643 3.94-2.9 7.177a2945.5 2945.5 0 01-4.276 10.948c-1.597 4.06-3.264 8.362-5.003 12.905-1.74 4.543-3.384 8.87-4.931 12.977a2177.23 2177.23 0 01-4.205 11.093 1313.329 1313.329 0 00-2.755 7.25zM182.8 101.91a455.169 455.169 0 00-6.307-4.64 429.665 429.665 0 00-7.178-5.075 289.38 289.38 0 005.22 16.82c.29 1.16.17 2.175-.362 3.045s-1.185 1.305-1.958 1.305c-1.257-.193-2.537-.773-3.843-1.74-1.305-.967-2.2-2.127-2.683-3.48-.387-.87-.869-2.272-1.449-4.205s-1.258-4.205-2.03-6.815c-1.644 2.417-3.166 4.785-4.567 7.105s-2.729 4.543-3.987 6.67c-.773 1.063-1.644 1.667-2.61 1.812-.967.146-1.692-.072-2.175-.652-.677-1.063-1.087-2.44-1.232-4.133-.146-1.69.12-3.117.797-4.277.483-.773 1.354-2.175 2.61-4.205 1.257-2.03 2.803-4.398 4.64-7.105-2.029.483-4.012.99-5.944 1.522-1.934.532-3.867 1.04-5.801 1.523-1.159.193-2.175 0-3.045-.58-.869-.58-1.257-1.257-1.159-2.03.29-1.257.941-2.392 1.958-3.407a8.095 8.095 0 013.552-2.103c.967-.29 2.537-.7 4.713-1.232 2.175-.532 4.664-1.136 7.467-1.813a229.066 229.066 0 01-5.727-3.552 98.2 98.2 0 00-5.729-3.408c-1.062-.677-1.667-1.547-1.812-2.61-.146-1.063.072-1.837.651-2.32 1.063-.677 2.345-.99 3.844-.942 1.498.048 2.827.46 3.986 1.232.968.483 2.32 1.305 4.061 2.465-.29-1.643-.532-3.214-.726-4.712a77.348 77.348 0 01-.435-4.278c-.097-1.062.145-1.982.725-2.755s1.257-1.208 2.03-1.305c.677-.193 1.498.024 2.465.653.967.628 1.692 1.812 2.175 3.552.388 1.837.822 3.722 1.306 5.655.482 1.933.967 4.012 1.45 6.235a289.062 289.062 0 015.654-7.395c1.837-2.32 3.577-4.302 5.221-5.945.772-.773 1.643-1.208 2.609-1.305.967-.097 1.74.145 2.32.725.482.387.846 1.16 1.088 2.32.24 1.16-.17 2.465-1.233 3.915a382.9 382.9 0 01-3.625 4.858 258.553 258.553 0 00-4.205 5.727 83.072 83.072 0 017.396-1.088c2.417-.24 4.688-.41 6.815-.507 1.062 0 1.981.193 2.755.58.772.387 1.208.967 1.305 1.74.097.677-.193 1.498-.87 2.465-.677.967-1.885 1.595-3.625 1.885-1.643.29-3.407.58-5.292.87-1.886.29-3.795.628-5.728 1.015a146.774 146.774 0 016.234 4.858 209.595 209.595 0 015.365 4.567c.773.773 1.28 1.57 1.523 2.393.239.82.119 1.57-.363 2.247-.483.483-1.305.822-2.465 1.015-1.16.193-2.417-.193-3.77-1.16zm58.87 0a449.612 449.612 0 00-13.485-9.715 289.38 289.38 0 005.22 16.82c.29 1.16.17 2.175-.363 3.045-.53.87-1.184 1.305-1.957 1.305-1.257-.193-2.537-.773-3.843-1.74s-2.2-2.127-2.683-3.48c-.387-.87-.87-2.272-1.449-4.205-.58-1.933-1.257-4.205-2.03-6.815-1.644 2.417-3.166 4.785-4.567 7.105s-2.729 4.543-3.987 6.67c-.773 1.063-1.644 1.667-2.61 1.812-.967.146-1.692-.072-2.175-.652-.678-1.063-1.087-2.44-1.233-4.133-.145-1.69.12-3.117.798-4.277.483-.773 1.354-2.175 2.61-4.205 1.257-2.03 2.803-4.398 4.64-7.105-2.029.483-4.012.99-5.944 1.522-1.934.532-3.867 1.04-5.801 1.523-1.159.193-2.175 0-3.045-.58-.87-.58-1.257-1.257-1.159-2.03.289-1.257.941-2.392 1.958-3.407a8.095 8.095 0 013.552-2.103c.967-.29 2.537-.7 4.713-1.232 2.175-.532 4.664-1.136 7.467-1.813a229.066 229.066 0 01-5.727-3.552 98.533 98.533 0 00-5.729-3.408c-1.062-.677-1.667-1.547-1.812-2.61-.146-1.063.071-1.837.651-2.32 1.063-.677 2.345-.99 3.844-.942 1.498.048 2.826.46 3.986 1.232.967.483 2.32 1.305 4.061 2.465-.29-1.643-.532-3.214-.726-4.712a77.348 77.348 0 01-.435-4.278c-.097-1.062.145-1.982.725-2.755s1.257-1.208 2.03-1.305c.677-.193 1.498.024 2.465.653.967.628 1.692 1.812 2.175 3.552.388 1.837.822 3.722 1.306 5.655.482 1.933.967 4.012 1.45 6.235a289.062 289.062 0 015.654-7.395c1.837-2.32 3.577-4.302 5.221-5.945.772-.773 1.643-1.208 2.609-1.305.967-.097 1.74.145 2.32.725.482.387.846 1.16 1.087 2.32.242 1.16-.17 2.465-1.232 3.915a382.9 382.9 0 01-3.625 4.858 258.553 258.553 0 00-4.205 5.727 83.072 83.072 0 017.396-1.088c2.417-.24 4.688-.41 6.814-.507 1.063 0 1.982.193 2.756.58.772.387 1.207.967 1.305 1.74.097.677-.193 1.498-.87 2.465-.677.967-1.885 1.595-3.625 1.885-1.643.29-3.407.58-5.292.87a129.5 129.5 0 00-5.729 1.015 146.19 146.19 0 016.235 4.858 213.1 213.1 0 015.365 4.567c.772.773 1.28 1.57 1.522 2.393.24.82.12 1.57-.362 2.247-.483.483-1.306.822-2.466 1.015-1.159.193-2.416-.193-3.769-1.16z"/></svg>